<?xml version="1.0" encoding="UTF-8" standalone="no"?>
<svg
   width="180"
   height="180"
   viewBox="0 0 180 180"
   fill="none"
   version="1.1"
   id="svg3"
   sodipodi:docname="netbox-mcp-server.svg"
   xml:space="preserve"
   inkscape:version="1.4 (e7c3feb100, 2024-10-09)"
   xmlns:inkscape="http://www.inkscape.org/namespaces/inkscape"
   xmlns:sodipodi="http://sodipodi.sourceforge.net/DTD/sodipodi-0.dtd"
   xmlns="http://www.w3.org/2000/svg"
   xmlns:svg="http://www.w3.org/2000/svg"><sodipodi:namedview
     id="namedview3"
     pagecolor="#ffffff"
     bordercolor="#000000"
     borderopacity="0.25"
     inkscape:showpageshadow="2"
     inkscape:pageopacity="0.0"
     inkscape:pagecheckerboard="0"
     inkscape:deskcolor="#d1d1d1"
     inkscape:zoom="1.1111111"
     inkscape:cx="182.7"
     inkscape:cy="149.85"
     inkscape:window-width="1920"
     inkscape:window-height="1120"
     inkscape:window-x="0"
     inkscape:window-y="0"
     inkscape:window-maximized="1"
     inkscape:current-layer="svg3" /><g
     clip-path="url(#clip0_19_13)"
     id="g3"
     transform="matrix(0.89567709,0,0,0.89567709,9.7876334,9.1656853)"><path
       d="M 18,84.8528 85.8822,16.9706 c 9.3726,-9.37262 24.5688,-9.37262 33.9408,0 v 0 c 9.373,9.3725 9.373,24.5685 0,33.9411 L 68.5581,102.177"
       stroke="#000000"
       stroke-width="12"
       stroke-linecap="round"
       id="path1" /><path
       d="M 69.2652,101.47 119.823,50.9117 c 9.373,-9.3726 24.569,-9.3726 33.942,0 l 0.353,0.3535 c 9.373,9.3726 9.373,24.5686 0,33.9411 L 92.7248,146.6 c -3.1242,3.124 -3.1242,8.189 0,11.313 l 12.6062,12.607"
       stroke="#000000"
       stroke-width="12"
       stroke-linecap="round"
       id="path2" /><path
       d="M 102.853,33.9411 52.6482,84.1457 c -9.3726,9.3726 -9.3726,24.5683 0,33.9413 v 0 c 9.3726,9.372 24.5685,9.372 33.9411,0 L 136.794,67.8822"
       stroke="#000000"
       stroke-width="12"
       stroke-linecap="round"
       id="path3" /></g><defs
     id="defs3"><clipPath
       id="clip0_19_13"><rect
         width="180"
         height="180"
         fill="white"
         id="rect3" /></clipPath></defs><g
     id="g4"
     transform="matrix(0.60204082,0,0,0.60204082,37.230656,-161.65306)"><g
       fill="#9cc8f8"
       stroke="#9cc8f8"
       id="g6"
       transform="translate(-72.849225,257.5)"><circle
         cx="37"
         cy="284"
         r="23"
         id="circle1" /><circle
         cx="101"
         cy="37"
         r="23"
         id="circle2" /><circle
         cx="101"
         cy="220"
         r="23"
         id="circle3" /><circle
         cx="284"
         cy="220"
         r="23"
         id="circle4" /><rect
         x="93"
         y="37"
         width="16"
         height="180"
         id="rect4" /><rect
         x="101"
         y="212"
         width="180"
         height="16"
         id="rect5" /><rect
         x="93"
         y="212"
         width="16"
         height="90"
         transform="rotate(45,101,220)"
         id="rect6" /></g><circle
       cx="211.15077"
       cy="294.5"
       r="23"
       id="circle6"
       style="fill:#1685fc;stroke:#1685fc" /><circle
       cx="-35.849224"
       cy="358.5"
       r="23"
       id="circle7"
       style="fill:#1685fc;stroke:#1685fc" /><circle
       cx="147.15077"
       cy="358.5"
       r="23"
       id="circle8"
       style="fill:#1685fc;stroke:#1685fc" /><circle
       cx="147.15077"
       cy="541.5"
       r="23"
       id="circle9"
       style="fill:#1685fc;stroke:#1685fc" /><rect
       x="-35.849224"
       y="350.5"
       width="180"
       height="16"
       id="rect9"
       style="fill:#1685fc;stroke:#1685fc" /><rect
       x="139.15077"
       y="358.5"
       width="16"
       height="180"
       id="rect10"
       style="fill:#1685fc;stroke:#1685fc" /><rect
       x="-365.54907"
       y="-157.44647"
       width="16"
       height="90"
       transform="rotate(-135)"
       id="rect11"
       style="fill:#1685fc;stroke:#1685fc" /></g></svg>
